<svg width="100" height="58" viewBox="0 0 100 58" fill="none" xmlns="http://www.w3.org/2000/svg">
<path d="M86.2534 15.0621C66.1706 -5.02069 33.4966 -5.02069 13.4139 15.0621L0 28.4742L13.7466 42.2209C23.7872 52.2614 36.9764 57.2834 50.1672 57.2834C63.3581 57.2834 76.5456 52.2631 86.5878 42.2209L100.002 28.807L86.2534 15.0621ZM84.1976 39.8323C65.4324 58.5959 34.9003 58.5959 16.1351 39.8323L4.77703 28.4742L15.8024 17.4489C34.5676 -1.31461 65.0997 -1.31461 83.8649 17.4489L95.223 28.807L84.1976 39.8323Z" fill="white"/>
<path d="M48.2635 15.0774C41.7432 15.0774 36.4392 20.3814 36.4392 26.9017C36.4392 27.8342 37.1959 28.5909 38.1284 28.5909C39.0608 28.5909 39.8176 27.8342 39.8176 26.9017C39.8176 22.2446 43.6064 18.4558 48.2635 18.4558C49.1959 18.4558 49.9527 17.699 49.9527 16.7666C49.9527 15.8341 49.1976 15.0774 48.2635 15.0774Z" fill="white"/>
<path d="M49.9527 6.63135C37.8446 6.63135 27.9932 16.4827 27.9932 28.5908C27.9932 40.6989 37.8446 50.5503 49.9527 50.5503C62.0608 50.5503 71.9121 40.6989 71.9121 28.5908C71.9121 16.4827 62.0625 6.63135 49.9527 6.63135ZM49.9527 47.1719C39.7078 47.1719 31.3716 38.8357 31.3716 28.5908C31.3716 18.3459 39.7078 10.0097 49.9527 10.0097C60.1976 10.0097 68.5338 18.3459 68.5338 28.5908C68.5338 38.8357 60.1993 47.1719 49.9527 47.1719Z" fill="white"/>
</svg>
